<svg width="22" height="23" viewBox="0 0 22 23" fill="none" xmlns="http://www.w3.org/2000/svg">
<path d="M16.8438 0.043457H5.15625C2.30853 0.043457 0 2.45236 0 5.42389V17.6195C0 20.5911 2.30853 23 5.15625 23H16.8438C19.6915 23 22 20.5911 22 17.6195V5.42389C22 2.45236 19.6915 0.043457 16.8438 0.043457Z" fill="url(#paint0_radial_156_21)"/>
<path d="M16.8438 0.043457H5.15625C2.30853 0.043457 0 2.45236 0 5.42389V17.6195C0 20.5911 2.30853 23 5.15625 23H16.8438C19.6915 23 22 20.5911 22 17.6195V5.42389C22 2.45236 19.6915 0.043457 16.8438 0.043457Z" fill="url(#paint1_radial_156_21)"/>
<path d="M11.0008 2.55432C8.66688 2.55432 8.37392 2.56499 7.45731 2.60848C6.54242 2.65225 5.91791 2.80335 5.37152 3.02511C4.80623 3.25414 4.32678 3.56055 3.84914 4.05914C3.37107 4.55764 3.07742 5.05793 2.85725 5.64753C2.64413 6.21786 2.49915 6.86979 2.45798 7.82401C2.41699 8.78056 2.40625 9.08635 2.40625 11.5218C2.40625 13.9573 2.41656 14.262 2.45816 15.2184C2.50027 16.1731 2.64507 16.8248 2.85742 17.3949C3.07708 17.9848 3.37073 18.4851 3.84854 18.9835C4.32609 19.4823 4.80554 19.7895 5.37041 20.0185C5.91723 20.2403 6.54182 20.3914 7.45654 20.4351C8.37323 20.4786 8.66594 20.4893 10.9997 20.4893C13.3339 20.4893 13.6259 20.4786 14.5425 20.4351C15.4574 20.3914 16.0826 20.2403 16.6294 20.0185C17.1945 19.7895 17.6732 19.4823 18.1507 18.9835C18.6288 18.4851 18.9223 17.9848 19.1426 17.3952C19.3538 16.8248 19.4989 16.1729 19.5418 15.2186C19.583 14.2621 19.5938 13.9573 19.5938 11.5218C19.5938 9.08635 19.583 8.78074 19.5418 7.82419C19.4989 6.86952 19.3538 6.21795 19.1426 5.6478C18.9223 5.05793 18.6288 4.55764 18.1507 4.05914C17.6727 3.56037 17.1946 3.25396 16.6289 3.0252C16.0811 2.80335 15.4562 2.65216 14.5413 2.60848C13.6246 2.56499 13.3328 2.55432 10.9981 2.55432H11.0008ZM10.2298 4.17033C10.4587 4.16998 10.714 4.17033 11.0008 4.17033C13.2954 4.17033 13.5673 4.17894 14.4734 4.2219C15.3113 4.26189 15.7661 4.40797 16.069 4.53073C16.4701 4.69322 16.756 4.88755 17.0566 5.2015C17.3574 5.51535 17.5435 5.81424 17.6997 6.23274C17.8173 6.5484 17.9575 7.02295 17.9957 7.89727C18.0368 8.84261 18.0458 9.12652 18.0458 11.5197C18.0458 13.913 18.0368 14.197 17.9957 15.1422C17.9573 16.0165 17.8173 16.4911 17.6997 16.8068C17.544 17.2253 17.3574 17.5233 17.0566 17.837C16.7558 18.1509 16.4703 18.3451 16.069 18.5077C15.7664 18.631 15.3113 18.7767 14.4734 18.8167C13.5675 18.8596 13.2954 18.869 11.0008 18.869C8.70607 18.869 8.43408 18.8596 7.52821 18.8167C6.69032 18.7763 6.23554 18.6303 5.93235 18.5075C5.53137 18.3449 5.24485 18.1507 4.94407 17.8368C4.64329 17.523 4.45715 17.2248 4.301 16.8061C4.18335 16.4904 4.04319 16.0158 4.00503 15.1415C3.96387 14.1961 3.95562 13.9122 3.95562 11.5175C3.95562 9.12285 3.96387 8.84037 4.00503 7.89503C4.04336 7.02071 4.18335 6.54616 4.301 6.23005C4.4568 5.81155 4.64329 5.51266 4.94416 5.19881C5.24494 4.88495 5.53137 4.69062 5.93244 4.52778C6.23537 4.40447 6.69032 4.25875 7.52821 4.21858C8.32098 4.18119 8.62821 4.16998 10.2298 4.16809V4.17033ZM15.5881 5.65928C15.0188 5.65928 14.5569 6.14083 14.5569 6.73501C14.5569 7.3291 15.0188 7.8111 15.5881 7.8111C16.1575 7.8111 16.6194 7.3291 16.6194 6.73501C16.6194 6.14092 16.1575 5.65892 15.5881 5.65892V5.65928ZM11.0008 6.9166C8.56359 6.9166 6.58754 8.97856 6.58754 11.5218C6.58754 14.065 8.56359 16.126 11.0008 16.126C13.438 16.126 15.4134 14.065 15.4134 11.5218C15.4134 8.97865 13.4379 6.9166 11.0006 6.9166H11.0008ZM11.0008 8.53261C12.5828 8.53261 13.8654 9.87082 13.8654 11.5218C13.8654 13.1726 12.5828 14.511 11.0008 14.511C9.41866 14.511 8.13622 13.1726 8.13622 11.5218C8.13622 9.87082 9.41866 8.53261 11.0008 8.53261Z" fill="white"/>
<defs>
<radialGradient id="paint0_radial_156_21" cx="0" cy="0" r="1" gradientUnits="userSpaceOnUse" gradientTransform="translate(5.84375 24.7681) rotate(-90) scale(22.7516 20.2791)">
<stop stop-color="#FFDD55"/>
<stop offset="0.1" stop-color="#FFDD55"/>
<stop offset="0.5" stop-color="#FF543E"/>
<stop offset="1" stop-color="#C837AB"/>
</radialGradient>
<radialGradient id="paint1_radial_156_21" cx="0" cy="0" r="1" gradientUnits="userSpaceOnUse" gradientTransform="translate(-3.68509 1.69713) rotate(79.1412) scale(10.1541 40.238)">
<stop stop-color="#3771C8"/>
<stop offset="0.128" stop-color="#3771C8"/>
<stop offset="1" stop-color="#6600FF" stop-opacity="0"/>
</radialGradient>
</defs>
</svg>
