<svg width="31" height="31" viewBox="0 0 31 31" fill="none" xmlns="http://www.w3.org/2000/svg">
<path d="M15.5 2.58325C8.37004 2.58325 2.58337 8.36992 2.58337 15.4999C2.58337 22.6299 8.37004 28.4166 15.5 28.4166C22.63 28.4166 28.4167 22.6299 28.4167 15.4999C28.4167 8.36992 22.63 2.58325 15.5 2.58325ZM15.5 7.74992C17.993 7.74992 20.0209 9.77784 20.0209 12.2708C20.0209 14.7637 17.993 16.7916 15.5 16.7916C13.0071 16.7916 10.9792 14.7637 10.9792 12.2708C10.9792 9.77784 13.0071 7.74992 15.5 7.74992ZM15.5 25.8333C12.878 25.8333 9.77796 24.7741 7.56921 22.1133C9.8317 20.3381 12.6243 19.3734 15.5 19.3734C18.3758 19.3734 21.1684 20.3381 23.4309 22.1133C21.2221 24.7741 18.1221 25.8333 15.5 25.8333Z" fill="#434B34"/>
</svg>
