<svg width="23" height="24" viewBox="0 0 23 24" fill="none" xmlns="http://www.w3.org/2000/svg">
<path d="M20.9606 0.90564H2.04128C1.39325 0.90564 0.86792 1.45381 0.86792 2.13001V21.8719C0.86792 22.5481 1.39325 23.0963 2.04128 23.0963H20.9606C21.6086 23.0963 22.1339 22.5481 22.1339 21.8719V2.13001C22.1339 1.45381 21.6086 0.90564 20.9606 0.90564Z" fill="#3D5A98"/>
<path d="M15.5393 23.0943V14.5012H18.3029L18.7162 11.1524H15.5393V9.01494C15.5393 8.04557 15.798 7.38369 17.1295 7.38369H18.8294V4.38369C18.0063 4.29418 17.1791 4.25161 16.3515 4.25619C13.9041 4.25619 12.2187 5.81244 12.2187 8.68307V11.1524H9.45508V14.5012H12.2187V23.0943H15.5393Z" fill="white"/>
</svg>
