<svg width="22" height="23" viewBox="0 0 22 23" fill="none" xmlns="http://www.w3.org/2000/svg">
<path d="M11 0.043457C8.08328 0.043457 5.28344 1.25352 3.22266 3.40533C1.15975 5.558 0.000571433 8.47743 0 11.5217C0 14.5647 1.16016 17.4863 3.22266 19.6381C5.28344 21.7899 8.08328 23 11 23C13.9167 23 16.7166 21.7899 18.7773 19.6381C20.8398 17.4863 22 14.5647 22 11.5217C22 8.47872 20.8398 5.55715 18.7773 3.40533C16.7166 1.25352 13.9167 0.043457 11 0.043457Z" fill="url(#paint0_linear_1261_18)"/>
<path d="M4.97927 11.4005C8.18646 9.94277 10.3246 8.98165 11.3936 8.51732C14.4496 7.1914 15.0838 6.96112 15.498 6.95332C15.5891 6.95179 15.7919 6.97528 15.9243 7.08693C16.0343 7.18109 16.0652 7.30842 16.0807 7.39783C16.0944 7.48714 16.1133 7.6907 16.0979 7.84961C15.9329 9.66461 15.2161 14.069 14.8518 16.1019C14.6988 16.9621 14.3946 17.2505 14.1007 17.2786C13.4613 17.34 12.9766 16.8382 12.3579 16.4151C11.3902 15.7527 10.8436 15.3406 9.90349 14.6944C8.81724 13.9476 9.52193 13.5371 10.1407 12.8663C10.3022 12.6907 13.1176 10.0194 13.1708 9.77706C13.1777 9.74675 13.1846 9.63376 13.1193 9.57421C13.0557 9.51449 12.9611 9.53494 12.8924 9.55108C12.7944 9.57404 11.2493 10.6408 8.25177 12.7512C7.81349 13.0658 7.41646 13.2191 7.05896 13.211C6.66708 13.2022 5.91083 12.9793 5.3488 12.7888C4.6613 12.5552 4.11302 12.4316 4.16115 12.0347C4.18521 11.8281 4.45849 11.6166 4.97927 11.4005Z" fill="white"/>
<defs>
<linearGradient id="paint0_linear_1261_18" x1="1100" y1="0.043457" x2="1100" y2="2295.7" gradientUnits="userSpaceOnUse">
<stop stop-color="#2AABEE"/>
<stop offset="1" stop-color="#229ED9"/>
</linearGradient>
</defs>
</svg>
