<?xml version="1.0" encoding="utf-8"?><svg viewBox="0 0 512 512" xmlns="http://www.w3.org/2000/svg" xmlns:xlink="http://www.w3.org/1999/xlink"><style>:root>svg{display:none}:root>svg:target{display:block}</style><svg fill="none" viewBox="0 0 31 31" id="account-circle" xmlns="http://www.w3.org/2000/svg">
    <path d="M15.5 2.583C8.37 2.583 2.583 8.37 2.583 15.5S8.37 28.417 15.5 28.417 28.417 22.63 28.417 15.5 22.63 2.583 15.5 2.583Zm0 5.167a4.526 4.526 0 0 1 4.52 4.52 4.526 4.526 0 0 1-4.52 4.522 4.526 4.526 0 0 1-4.52-4.521A4.526 4.526 0 0 1 15.5 7.75Zm0 18.083c-2.622 0-5.722-1.059-7.93-3.72a12.848 12.848 0 0 1 15.86 0c-2.208 2.661-5.308 3.72-7.93 3.72Z" fill="#434B34"/>
</svg><svg fill="none" viewBox="0 0 23 24" id="facebook" xmlns="http://www.w3.org/2000/svg">
    <path d="M20.96.906H2.042C1.393.906.868 1.454.868 2.13v19.742c0 .676.525 1.224 1.173 1.224h18.92c.648 0 1.173-.548 1.173-1.224V2.13c0-.676-.525-1.224-1.173-1.224Z" fill="#3D5A98"/>
    <path d="M15.54 23.094v-8.593h2.763l.413-3.349H15.54V9.015c0-.97.259-1.631 1.59-1.631h1.7v-3c-.823-.09-1.65-.132-2.477-.128-2.448 0-4.133 1.556-4.133 4.427v2.47H9.455V14.5h2.764v8.593h3.32Z" fill="#fff"/>
</svg><svg fill="none" viewBox="0 0 24 25" id="heart" xmlns="http://www.w3.org/2000/svg">
    <path fill-rule="evenodd" clip-rule="evenodd" d="M12.692 7.584a1 1 0 0 1-1.384 0l-.693-.665A4.5 4.5 0 0 0 3 10.166c0 2.383 1.29 4.35 3.152 5.967 1.863 1.618 4.091 2.691 5.423 3.239.278.114.572.114.85 0 1.332-.548 3.56-1.62 5.423-3.239C19.71 14.517 21 12.55 21 10.167a4.5 4.5 0 0 0-7.615-3.248l-.693.665ZM12 5.476a6.5 6.5 0 0 0-11 4.69c0 6.369 6.97 9.886 9.814 11.055a3.096 3.096 0 0 0 2.372 0C16.03 20.051 23 16.535 23 10.167a6.5 6.5 0 0 0-11-4.69Z" fill="#141718"/>
</svg><svg fill="none" viewBox="0 0 24 24" id="heart-line" xmlns="http://www.w3.org/2000/svg">
    <path d="M12.001 4.529a5.998 5.998 0 0 1 8.242.228 6 6 0 0 1 .236 8.236l-8.48 8.492-8.478-8.492a6 6 0 0 1 8.48-8.464Zm6.826 1.641a3.998 3.998 0 0 0-5.49-.153l-1.335 1.198-1.336-1.197a4 4 0 0 0-5.686 5.605L12 18.654l7.02-7.03a4 4 0 0 0-.193-5.454Z" fill="#000"/>
</svg><svg fill="none" viewBox="0 0 24 24" id="id-card-line" xmlns="http://www.w3.org/2000/svg">
    <path d="M3 6h18v12H3V6ZM2 4a1 1 0 0 0-1 1v14a1 1 0 0 0 1 1h20a1 1 0 0 0 1-1V5a1 1 0 0 0-1-1H2Zm11 4h6v2h-6V8Zm5 4h-5v2h5v-2Zm-7.5-2a2.5 2.5 0 1 1-5 0 2.5 2.5 0 0 1 5 0ZM8 13.5A3.5 3.5 0 0 0 4.5 17h7A3.5 3.5 0 0 0 8 13.5Z" fill="#000"/>
</svg><svg fill="none" viewBox="0 0 22 23" id="instagram" xmlns="http://www.w3.org/2000/svg">
    <path d="M16.844.043H5.156C2.31.043 0 2.453 0 5.423V17.62C0 20.591 2.309 23 5.156 23h11.688C19.692 23 22 20.591 22 17.62V5.423c0-2.972-2.308-5.38-5.156-5.38Z" fill="url(#fa)"/>
    <path d="M16.844.043H5.156C2.31.043 0 2.453 0 5.423V17.62C0 20.591 2.309 23 5.156 23h11.688C19.692 23 22 20.591 22 17.62V5.423c0-2.972-2.308-5.38-5.156-5.38Z" fill="url(#fb)"/>
    <path d="M11 2.554c-2.333 0-2.626.011-3.543.054-.915.044-1.54.195-2.085.417A4.194 4.194 0 0 0 3.849 4.06a4.426 4.426 0 0 0-.992 1.589c-.213.57-.358 1.222-.399 2.176-.041.957-.052 1.262-.052 3.698 0 2.435.01 2.74.052 3.696.042.955.187 1.607.4 2.177.22.59.513 1.09.99 1.588.478.5.958.806 1.522 1.035.547.222 1.172.373 2.087.417.916.044 1.209.054 3.543.054s2.626-.01 3.543-.054c.914-.044 1.54-.195 2.086-.416a4.19 4.19 0 0 0 1.522-1.035c.478-.499.771-1 .992-1.589.21-.57.356-1.222.399-2.176.041-.957.052-1.262.052-3.697 0-2.436-.011-2.741-.052-3.698-.043-.954-.188-1.606-.4-2.176a4.426 4.426 0 0 0-.991-1.589 4.186 4.186 0 0 0-1.522-1.034c-.548-.222-1.173-.373-2.088-.417-.916-.043-1.208-.054-3.543-.054h.003Zm-.77 1.616H11c2.295 0 2.567.009 3.473.052.838.04 1.293.186 1.596.309.401.162.687.357.988.67.3.314.487.613.643 1.032.117.315.258.79.296 1.664.04.946.05 1.23.05 3.623 0 2.393-.01 2.677-.05 3.622-.039.875-.179 1.35-.296 1.665a2.786 2.786 0 0 1-.643 1.03 2.65 2.65 0 0 1-.988.67c-.303.124-.758.27-1.596.31-.905.043-1.178.052-3.472.052-2.295 0-2.567-.01-3.473-.052-.838-.04-1.292-.187-1.596-.31a2.655 2.655 0 0 1-.988-.67 2.793 2.793 0 0 1-.643-1.03c-.118-.317-.258-.791-.296-1.665-.041-.946-.05-1.23-.05-3.624 0-2.395.009-2.678.05-3.623.038-.874.178-1.349.296-1.665.156-.418.342-.717.643-1.031.3-.314.587-.508.988-.671.303-.124.758-.27 1.596-.31.793-.037 1.1-.048 2.702-.05v.002Zm5.358 1.49c-.57 0-1.031.48-1.031 1.075 0 .594.462 1.076 1.031 1.076.57 0 1.031-.482 1.031-1.076 0-.594-.462-1.076-1.03-1.076Zm-4.587 1.257c-2.437 0-4.413 2.062-4.413 4.605 0 2.543 1.976 4.604 4.413 4.604 2.437 0 4.412-2.061 4.412-4.604s-1.975-4.605-4.412-4.605Zm0 1.616c1.582 0 2.864 1.338 2.864 2.989 0 1.65-1.282 2.989-2.864 2.989-1.582 0-2.865-1.338-2.865-2.99 0-1.65 1.283-2.988 2.865-2.988Z" fill="#fff"/>
    <defs>
        <radialGradient id="fa" cx="0" cy="0" r="1" gradientUnits="userSpaceOnUse" gradientTransform="matrix(0 -22.7516 20.2791 0 5.844 24.768)">
            <stop stop-color="#FD5"/>
            <stop offset=".1" stop-color="#FD5"/>
            <stop offset=".5" stop-color="#FF543E"/>
            <stop offset="1" stop-color="#C837AB"/>
        </radialGradient>
        <radialGradient id="fb" cx="0" cy="0" r="1" gradientUnits="userSpaceOnUse" gradientTransform="matrix(1.91292 9.97229 -39.51752 7.5804 -3.685 1.697)">
            <stop stop-color="#3771C8"/>
            <stop offset=".128" stop-color="#3771C8"/>
            <stop offset="1" stop-color="#60F" stop-opacity="0"/>
        </radialGradient>
    </defs>
</svg><svg viewBox="0 0 25 25" id="leftarrow" xmlns="http://www.w3.org/2000/svg">
    <path style="fill:#232326" d="M24 12.001H2.914l5.294-5.295-.707-.707L1 12.501l6.5 6.5.707-.707-5.293-5.293H24v-1z" data-name="Left"/>
</svg><svg fill="none" viewBox="0 0 133 42" id="logo" xmlns="http://www.w3.org/2000/svg">
    <path d="M15.219 8.11 9.23 25.243H6.254L.266 8.11h2.882l3.61 10.735c.11.312.226.69.351 1.136.133.445.254.895.364 1.348.117.453.207.855.27 1.207.062-.352.148-.754.257-1.207.117-.453.238-.902.363-1.348.125-.445.242-.828.352-1.148l3.62-10.723h2.884Zm4.722 4.16v12.973h-2.753V12.27h2.753Zm-1.359-4.968c.422 0 .785.113 1.09.34.312.226.469.617.469 1.171 0 .547-.157.938-.47 1.172-.304.227-.667.34-1.089.34-.438 0-.809-.113-1.113-.34-.297-.234-.446-.625-.446-1.172 0-.554.149-.945.446-1.172.304-.226.675-.34 1.113-.34Zm12.07 4.722c1.461 0 2.598.38 3.41 1.137.82.75 1.231 1.957 1.231 3.621v8.46h-2.754v-7.944c0-1.008-.207-1.762-.621-2.262-.414-.508-1.055-.762-1.922-.762-1.258 0-2.133.387-2.625 1.16-.484.774-.726 1.895-.726 3.364v6.445H23.89V12.27h2.144l.387 1.758h.152a3.75 3.75 0 0 1 1.043-1.113c.422-.297.89-.52 1.406-.668a5.943 5.943 0 0 1 1.63-.223Zm13.325 11.227c.359 0 .714-.032 1.066-.094a8.59 8.59 0 0 0 .96-.246v2.086c-.304.133-.698.246-1.183.34-.484.093-.988.14-1.511.14-.735 0-1.395-.12-1.98-.363-.587-.25-1.052-.676-1.395-1.277-.344-.602-.516-1.434-.516-2.496v-6.973h-1.77v-1.23l1.899-.973.902-2.778h1.735v2.883h3.714v2.098h-3.714v6.937c0 .657.164 1.145.492 1.465.328.32.761.48 1.3.48Zm9.75-11.227c1.64 0 2.879.364 3.714 1.09.844.727 1.266 1.86 1.266 3.398v8.73H56.75l-.527-1.839h-.094a6.697 6.697 0 0 1-1.137 1.16 3.97 3.97 0 0 1-1.36.68c-.507.156-1.128.234-1.862.234-.774 0-1.465-.14-2.075-.422a3.296 3.296 0 0 1-1.441-1.312c-.352-.586-.527-1.328-.527-2.227 0-1.336.496-2.34 1.488-3.011 1-.672 2.508-1.043 4.523-1.114l2.25-.082v-.68c0-.898-.21-1.538-.633-1.921-.414-.383-1-.575-1.757-.575a6.38 6.38 0 0 0-1.887.282c-.61.187-1.203.418-1.781.691l-.89-1.945a9.988 9.988 0 0 1 2.155-.82 10.03 10.03 0 0 1 2.532-.317Zm2.25 7.02-1.676.058c-1.375.047-2.34.282-2.895.703-.554.422-.832 1-.832 1.735 0 .64.192 1.11.574 1.406.383.29.887.434 1.512.434.953 0 1.742-.27 2.367-.809.633-.547.95-1.348.95-2.402v-1.125Zm10.289 11.965c-1.758 0-3.106-.317-4.043-.95-.938-.633-1.407-1.52-1.407-2.66 0-.797.25-1.473.75-2.027.5-.547 1.215-.926 2.145-1.137a2.39 2.39 0 0 1-.914-.726 1.822 1.822 0 0 1-.375-1.114c0-.484.137-.898.41-1.242.273-.344.684-.676 1.23-.996a3.575 3.575 0 0 1-1.64-1.406c-.406-.657-.61-1.426-.61-2.309 0-.937.2-1.734.598-2.39.399-.665.98-1.168 1.746-1.512.766-.352 1.692-.527 2.778-.527.234 0 .488.015.761.046.282.024.54.055.774.094.242.031.425.066.55.105h4.489v1.536l-2.203.41a3.87 3.87 0 0 1 .691 2.25c0 1.344-.465 2.402-1.394 3.176-.922.765-2.196 1.148-3.82 1.148-.391-.015-.77-.047-1.138-.094a2.128 2.128 0 0 0-.644.575 1.143 1.143 0 0 0-.223.691c0 .21.075.383.223.516.148.125.367.218.656.28.297.063.656.095 1.078.095h2.239c1.421 0 2.508.3 3.258.902.75.602 1.125 1.484 1.125 2.648 0 1.477-.61 2.614-1.829 3.41-1.218.805-2.972 1.208-5.261 1.208Zm.105-1.934c.961 0 1.77-.094 2.426-.281.656-.188 1.152-.457 1.488-.809a1.7 1.7 0 0 0 .504-1.23c0-.422-.105-.746-.316-.973-.211-.227-.528-.383-.95-.469-.421-.086-.945-.129-1.57-.129h-2.039a3.61 3.61 0 0 0-1.348.235c-.39.164-.695.398-.914.703-.21.305-.316.672-.316 1.101 0 .594.262 1.051.785 1.372.531.32 1.281.48 2.25.48Zm.54-10.102c.804 0 1.401-.218 1.792-.656.39-.445.586-1.07.586-1.875 0-.875-.203-1.531-.61-1.969-.398-.437-.992-.656-1.78-.656-.774 0-1.364.223-1.77.668-.398.445-.598 1.106-.598 1.98 0 .79.2 1.407.598 1.852.406.438 1 .656 1.781.656Zm14.132-6.949c1.156 0 2.148.239 2.976.715a4.79 4.79 0 0 1 1.91 2.027c.446.875.669 1.922.669 3.141v1.477h-8.66c.03 1.257.367 2.226 1.007 2.906.649.68 1.555 1.02 2.72 1.02.827 0 1.57-.079 2.226-.235a12.365 12.365 0 0 0 2.05-.715v2.238a8.968 8.968 0 0 1-1.98.668c-.672.141-1.477.211-2.414.211-1.274 0-2.395-.246-3.363-.738-.961-.5-1.715-1.242-2.262-2.227-.54-.984-.809-2.207-.809-3.668 0-1.453.246-2.687.739-3.703.492-1.015 1.183-1.789 2.074-2.32.89-.531 1.93-.797 3.117-.797Zm0 2.074c-.867 0-1.57.282-2.11.844-.53.563-.843 1.387-.937 2.473h5.906c-.008-.649-.117-1.223-.328-1.723-.203-.5-.515-.89-.937-1.172-.414-.281-.946-.422-1.594-.422ZM112.75 0C101.572 0 92.5 8.81 92.5 19.665c0 8.285 5.292 15.364 12.744 18.249H86.776c-.378 0-.702.314-.702.681 0 .367.324.682.702.682h23.976c.648.053 1.296.105 1.998.105C123.928 39.33 133 30.52 133 19.665 133 8.81 123.928 0 112.75 0Zm0 36.708c-9.666 0-17.55-7.657-17.55-17.043 0-9.387 7.884-17.043 17.55-17.043s17.55 7.656 17.55 17.043c0 9.386-7.884 17.043-17.55 17.043Z" fill="#000"/>
    <path d="M95.362 34.138c0-.367-.324-.682-.702-.682H81.052c-.378 0-.702.315-.702.682 0 .367.324.682.702.682h13.662c.378 0 .648-.315.648-.682Zm-4.05-4.405c0-.367-.324-.681-.702-.681H79.702c-.378.052-.702.314-.702.681 0 .367.324.682.702.682h10.962c.324 0 .648-.315.648-.682Zm21.438-23.86c-7.83 0-14.202 6.188-14.202 13.792s6.372 13.791 14.202 13.791 14.148-6.188 14.148-13.791c0-7.604-6.318-13.792-14.148-13.792Zm6.156 9.702c-.486.472-.648 1.153-.378 1.783.27.629.864.996 1.566.996h4.806v2.622h-4.806c-.702 0-1.296.42-1.566.996-.27.63-.108 1.311.378 1.783l3.402 3.304-1.89 1.835-3.402-3.303a1.695 1.695 0 0 0-1.836-.368 1.598 1.598 0 0 0-1.026 1.521v4.667h-2.7v-4.667c0-.682-.432-1.258-1.026-1.52a1.695 1.695 0 0 0-1.836.366l-3.402 3.304-1.89-1.835 3.402-3.304c.486-.472.648-1.154.378-1.783-.27-.63-.864-.996-1.566-.996H100.6v-2.622h4.806c.702 0 1.296-.42 1.566-.996.27-.63.108-1.311-.378-1.783l-3.402-3.304 1.89-1.836 3.402 3.304c.486.472 1.188.63 1.836.367a1.598 1.598 0 0 0 1.026-1.52V7.917h2.7v4.667c0 .682.432 1.26 1.026 1.521.648.262 1.35.105 1.836-.367l3.402-3.304 1.89 1.836-3.294 3.304Zm-1.026-4.615c-.756-.42-1.566-.734-2.43-.996V7.499c1.512.315 2.97.891 4.266 1.73l-1.836 1.73Zm-7.83-.996c-.864.21-1.674.576-2.43.996l-1.836-1.783c1.296-.787 2.7-1.416 4.266-1.73v2.517Zm-6.264 4.72c-.432.733-.756 1.52-1.026 2.359h-2.592a11.818 11.818 0 0 1 1.782-4.143l1.836 1.783Zm-1.026 7.603c.216.839.594 1.625 1.026 2.36l-1.836 1.783c-.81-1.259-1.458-2.622-1.782-4.143h2.592Zm4.86 6.083c.756.42 1.566.734 2.43.996v2.465a12.563 12.563 0 0 1-4.266-1.73l1.836-1.731Zm7.83.996c.864-.21 1.674-.577 2.43-.996l1.836 1.783c-1.296.786-2.7 1.416-4.266 1.73v-2.517Zm6.264-4.72c.432-.734.756-1.52 1.026-2.36h2.592a11.818 11.818 0 0 1-1.782 4.143l-1.836-1.782Zm1.026-7.603c-.216-.84-.594-1.626-1.026-2.36l1.836-1.783c.81 1.259 1.458 2.622 1.782 4.143h-2.592Z" fill="#000"/>
    <path d="M112.75 15.732c-2.214 0-4.05 1.783-4.05 3.933s1.836 3.933 4.05 3.933c2.214 0 4.05-1.783 4.05-3.933s-1.836-3.933-4.05-3.933Zm0 6.555c-1.512 0-2.7-1.154-2.7-2.622 0-1.469 1.188-2.622 2.7-2.622 1.512 0 2.7 1.153 2.7 2.622 0 1.468-1.188 2.622-2.7 2.622ZM53.38 32.266l-1.865 7.139h-1.28l-1.191-4.278c-.03-.104-.062-.228-.098-.37l-.107-.44-.088-.41a9.05 9.05 0 0 1-.049-.293 3.56 3.56 0 0 1-.044.288c-.023.123-.05.26-.083.41-.03.146-.062.293-.098.44-.035.142-.068.27-.097.38l-1.172 4.273h-1.274l-1.86-7.14h1.176l1.03 4.185c.033.134.065.279.098.435.036.153.068.308.098.464a14.324 14.324 0 0 1 .151.86c.016-.124.037-.261.063-.41.027-.154.054-.309.083-.465.033-.16.066-.312.098-.459.036-.146.072-.278.107-.395l1.163-4.214h1.142l1.187 4.228c.035.12.07.256.102.406a15.891 15.891 0 0 1 .254 1.308 18.142 18.142 0 0 1 .347-1.758l1.025-4.184h1.182Zm2.04-.46v1.91c0 .199-.006.392-.019.581-.01.189-.02.335-.034.44h.064a1.56 1.56 0 0 1 .42-.464c.166-.124.351-.217.556-.279a2.32 2.32 0 0 1 .664-.092c.414 0 .765.07 1.055.21.29.136.511.35.664.64.156.289.234.665.234 1.127v3.526h-1.147v-3.311c0-.42-.086-.734-.259-.942-.172-.212-.44-.318-.8-.318-.349 0-.626.073-.83.22-.203.143-.347.356-.435.64-.088.28-.132.621-.132 1.025v2.685h-1.148v-7.597h1.148Zm7.364 2.09c.482 0 .895.1 1.24.299.346.198.61.48.796.844.186.365.279.801.279 1.309v.615H61.49c.013.524.153.928.42 1.211.27.283.648.425 1.133.425.345 0 .654-.033.928-.098.276-.068.561-.167.854-.298v.933a3.74 3.74 0 0 1-.825.278c-.28.059-.615.088-1.006.088-.53 0-.998-.102-1.401-.307a2.25 2.25 0 0 1-.943-.928c-.224-.41-.337-.92-.337-1.529 0-.605.103-1.12.308-1.542.205-.424.493-.746.864-.967.371-.222.804-.332 1.3-.332Zm0 .865c-.361 0-.654.117-.879.351-.221.235-.351.578-.39 1.03h2.46a1.894 1.894 0 0 0-.136-.717 1.042 1.042 0 0 0-.39-.488c-.173-.117-.395-.176-.665-.176Zm5.762-.864c.482 0 .895.099 1.24.298.345.198.61.48.796.844.186.365.278.801.278 1.309v.615h-3.608c.013.524.153.928.42 1.211.27.283.648.425 1.133.425.345 0 .654-.033.927-.098.277-.068.562-.167.855-.298v.933c-.27.127-.545.22-.825.278-.28.059-.615.088-1.006.088-.53 0-.998-.102-1.401-.307a2.25 2.25 0 0 1-.943-.928c-.225-.41-.337-.92-.337-1.529 0-.605.103-1.12.308-1.542.205-.424.493-.746.864-.967.371-.222.804-.332 1.299-.332Zm0 .864c-.361 0-.654.117-.879.351-.221.235-.352.578-.39 1.03h2.46a1.894 1.894 0 0 0-.136-.717 1.041 1.041 0 0 0-.391-.488c-.173-.117-.394-.176-.664-.176Zm4.76 4.643h-1.152v-7.597h1.153v7.598Zm5.274-1.542c0 .354-.086.654-.259.898-.172.244-.424.43-.757.557-.328.123-.732.185-1.21.185-.378 0-.704-.028-.977-.083a3.344 3.344 0 0 1-.767-.244v-.991c.258.12.546.224.865.312.322.088.626.132.913.132.377 0 .65-.058.815-.176a.564.564 0 0 0 .25-.478.507.507 0 0 0-.103-.313c-.066-.094-.19-.19-.371-.288a7.081 7.081 0 0 0-.791-.361 6.609 6.609 0 0 1-.865-.41 1.506 1.506 0 0 1-.532-.493c-.12-.196-.18-.445-.18-.747 0-.479.188-.842.566-1.09.38-.25.883-.375 1.508-.375.333 0 .645.034.938.102.296.065.586.161.87.288l-.362.865a5.414 5.414 0 0 0-.737-.264 2.642 2.642 0 0 0-.748-.107c-.296 0-.522.045-.678.136a.431.431 0 0 0-.23.39.48.48 0 0 0 .113.323c.075.088.203.176.385.264.186.088.443.197.772.327.322.124.6.254.835.39.237.134.42.298.547.494.127.195.19.447.19.757Z" fill="#000"/>
</svg><svg viewBox="0 0 25 25" id="rightarrow" xmlns="http://www.w3.org/2000/svg">
    <path style="fill:#232326" d="m17.5 5.999-.707.707 5.293 5.293H1v1h21.086l-5.294 5.295.707.707L24 12.499l-6.5-6.5z" data-name="Right"/>
</svg><svg fill="none" viewBox="0 0 24 24" id="search" xmlns="http://www.w3.org/2000/svg">
    <path d="M18.5 18.5 22 22m-1-10.5a9.5 9.5 0 1 0-19 0 9.5 9.5 0 0 0 19 0Z" stroke="#141718" stroke-width="1.5" stroke-linecap="round" stroke-linejoin="round"/>
</svg><svg fill="none" viewBox="0 0 24 24" id="search-line" xmlns="http://www.w3.org/2000/svg">
    <path d="m18.031 16.617 4.283 4.282-1.415 1.415-4.282-4.283A8.96 8.96 0 0 1 11 20c-4.968 0-9-4.032-9-9s4.032-9 9-9 9 4.032 9 9a8.96 8.96 0 0 1-1.969 5.617Zm-2.006-.742A6.977 6.977 0 0 0 18 11c0-3.867-3.133-7-7-7s-7 3.133-7 7 3.133 7 7 7a6.977 6.977 0 0 0 4.875-1.975l.15-.15Z" fill="#000"/>
</svg><svg fill="none" viewBox="0 0 15 14" id="star1" xmlns="http://www.w3.org/2000/svg">
    <path d="m7.5 1.618 1.208 3.719.113.345h4.273L9.931 7.981l-.294.213.112.346 1.208 3.719L7.794 9.96 7.5 9.747l-.294.213-3.163 2.299 1.208-3.72.112-.345-.294-.213-3.163-2.299h4.273l.113-.345L7.5 1.618Z" fill="#FFDC27" stroke="#FFDC27"/>
</svg><svg fill="none" viewBox="0 0 15 14" id="star2" xmlns="http://www.w3.org/2000/svg">
    <path d="m7.5 1.618 1.208 3.719.113.345h4.273L9.931 7.981l-.294.213.112.346 1.208 3.719L7.794 9.96 7.5 9.747l-.294.213-3.163 2.299 1.208-3.72.112-.345-.294-.213-3.163-2.299h4.273l.113-.345L7.5 1.618Z" stroke="#FFDC27"/>
</svg><svg fill="none" viewBox="0 0 22 23" id="telegram" xmlns="http://www.w3.org/2000/svg">
    <path d="M11 .043c-2.917 0-5.717 1.21-7.777 3.362C1.16 5.558 0 8.477 0 11.522c0 3.043 1.16 5.964 3.223 8.116C5.283 21.79 8.083 23 11 23s5.717-1.21 7.777-3.362C20.84 17.486 22 14.565 22 11.522c0-3.043-1.16-5.965-3.223-8.117C16.717 1.254 13.917.043 11 .043Z" fill="url(#na)"/>
    <path d="M4.98 11.4a524.143 524.143 0 0 1 6.414-2.883c3.056-1.326 3.69-1.556 4.104-1.564.091-.001.294.022.426.134.11.094.141.221.157.31.013.09.032.294.017.453-.165 1.815-.882 6.219-1.246 8.252-.153.86-.457 1.148-.751 1.177-.64.061-1.124-.44-1.743-.864-.968-.662-1.514-1.074-2.455-1.72-1.086-.747-.381-1.158.238-1.829.161-.175 2.977-2.847 3.03-3.089.007-.03.014-.143-.052-.203-.063-.06-.158-.04-.227-.023-.098.023-1.643 1.09-4.64 3.2-.439.315-.836.468-1.193.46-.392-.009-1.148-.232-1.71-.422-.688-.234-1.236-.357-1.188-.754.024-.207.297-.418.818-.635Z" fill="#fff"/>
    <defs>
        <linearGradient id="na" x1="1100" y1=".043" x2="1100" y2="2295.7" gradientUnits="userSpaceOnUse">
            <stop stop-color="#2AABEE"/>
            <stop offset="1" stop-color="#229ED9"/>
        </linearGradient>
    </defs>
</svg><svg fill="none" viewBox="0 0 24 24" id="user" xmlns="http://www.w3.org/2000/svg">
    <path d="M18.559 19.549a7.003 7.003 0 0 0-13.118 0m13.118 0A9.976 9.976 0 0 0 22 12c0-5.523-4.477-10-10-10S2 6.477 2 12a9.977 9.977 0 0 0 3.441 7.549m13.118 0A9.961 9.961 0 0 1 12 22a9.961 9.961 0 0 1-6.559-2.451M15 9a3 3 0 1 1-6 0 3 3 0 0 1 6 0Z" stroke="#141718" stroke-width="1.5" stroke-linejoin="round"/>
</svg><svg fill="none" viewBox="0 0 24 24" id="user-star-line" xmlns="http://www.w3.org/2000/svg">
    <path d="M12 14v2a6 6 0 0 0-6 6H4a8 8 0 0 1 8-8Zm0-1c-3.315 0-6-2.685-6-6s2.685-6 6-6 6 2.685 6 6-2.685 6-6 6Zm0-2c2.21 0 4-1.79 4-4s-1.79-4-4-4-4 1.79-4 4 1.79 4 4 4Zm6 10.5-2.939 1.545.561-3.273-2.377-2.317 3.286-.477L18 14l1.47 2.977 3.285.478-2.377 2.318.56 3.272L18 21.5Z" fill="#000"/>
</svg><svg viewBox="0 0 497 497" id="website" xmlns="http://www.w3.org/2000/svg">
    <path d="M497 128.5v312c0 11.046-8.954 20-20 20H20c-11.046 0-20-8.954-20-20v-312z" fill="#faf8f8"/>
    <path d="M290.498 294.5c0-23.196-18.804-42-42-42a41.823 41.823 0 0 0-19.482 4.782c-13.386 7.021-19.327 21.053-19.327 37.218 0 23.196 15.613 36.457 38.809 36.457 16.214 0 30.282-3.645 37.282-17.099a41.814 41.814 0 0 0 4.718-19.358z" fill="#dc4955"/>
    <path d="M286.468 312.47c-6.73 14.21-21.2 24.03-37.97 24.03-23.2 0-42-18.8-42-42 0-16.77 9.82-31.24 24.03-37.97-2.59 5.45-4.03 11.54-4.03 17.97 0 23.2 18.8 42 42 42 6.43 0 12.52-1.44 17.97-4.03z" fill="#d82f3c"/>
    <path d="M429.496 294.5c0-23.196-18.804-42-42-42a41.823 41.823 0 0 0-19.482 4.782c-13.386 7.021-19.327 21.053-19.327 37.218 0 23.196 15.613 36.457 38.809 36.457 16.214 0 30.282-3.645 37.282-17.099a41.814 41.814 0 0 0 4.718-19.358z" fill="#b7e546"/>
    <path d="M425.466 312.47c-6.73 14.21-21.2 24.03-37.97 24.03-23.2 0-42-18.8-42-42 0-16.77 9.82-31.24 24.03-37.97-2.59 5.45-4.03 11.54-4.03 17.97 0 23.2 18.8 42 42 42 6.43 0 12.52-1.44 17.97-4.03z" fill="#abd641"/>
    <path d="M497 148.5v-20l-276.011-12.798L0 128.5v312c0 11.046 8.954 20 20 20h15c-8.28 0-15-6.72-15-15v-291a6 6 0 0 1 6-6z" fill="#f0e9e6"/>
    <path d="M497 56.5V129H0V56.5c0-11.046 8.954-20 20-20h457c11.046 0 20 8.954 20 20z" fill="#5d748a"/>
    <g fill="#3f597d">
        <path d="M227.758 108.5c-8.255 0-14.947-6.716-14.947-15s6.692-15 14.947-15h208.315c8.255 0 14.947 6.716 14.947 15s-6.692 15-14.947 15z"/>
        <ellipse cx="160.869" cy="93.5" rx="14.947" ry="15"/>
        <path d="m171.361 104.184 12.874-12.869-13.139 1.179zM150.592 82.608l12.562-12.516-2.693 10.408z"/>
        <ellipse cx="98.034" cy="93.5" rx="14.947" ry="15"/>
        <path d="m108.553 104.157 12.382-12.499-12.674.836zM87.757 82.608l12.371-12.459L97.626 80.5z"/>
        <ellipse cx="32.947" cy="93.5" rx="14.947" ry="15"/>
        <path d="M43.769 103.846 56.49 90.66l-13.139 1.381zM22.67 82.608 34.292 70.57l-1.753 9.93z"/>
    </g>
    <ellipse cx="173.849" cy="80.5" fill="#b7e546" rx="14.947" ry="15"/>
    <path d="m217.514 82.577 12.971-12.991-3.025 14.276zM446.83 103.915l13.149-13.179-10.185 3.381z" fill="#3f597d"/>
    <ellipse cx="110.946" cy="80.5" fill="#ffbf54" rx="14.947" ry="15"/>
    <ellipse cx="45.495" cy="80.5" fill="#dc4955" rx="14.947" ry="15"/>
    <path d="M240.737 95.5c-8.255 0-14.947-6.716-14.947-15s6.692-15 14.947-15h208.315c8.255 0 14.947 6.716 14.947 15s-6.692 15-14.947 15z" fill="#faf8f8"/>
    <path d="m135.893 215 226.628 2c5.523 0 10-4.477 10-10l3.479-7v-30c0-5.523-4.477-10-10-10H142l-6.107 5c-5.523 0-10 4.477-10 10v30c0 5.523 4.477 10 10 10z" fill="#aad8de"/>
    <path d="M376 200v10c0 5.523-4.477 10-10 10H132c-5.523 0-10-4.477-10-10v-40c0-5.523 4.477-10 10-10h10v33a7 7 0 0 0 7 7z" fill="#94ccd4"/>
    <path d="M151.5 294.5c0-23.196-18.804-42-42-42a41.823 41.823 0 0 0-19.482 4.782c-13.386 7.021-19.327 21.053-19.327 37.218 0 23.196 15.613 36.457 38.809 36.457 16.214 0 30.282-3.645 37.282-17.099A41.814 41.814 0 0 0 151.5 294.5z" fill="#ffbf54"/>
    <path d="M147.47 312.47c-6.73 14.21-21.2 24.03-37.97 24.03-23.2 0-42-18.8-42-42 0-16.77 9.82-31.24 24.03-37.97-2.59 5.45-4.03 11.54-4.03 17.97 0 23.2 18.8 42 42 42 6.43 0 12.52-1.44 17.97-4.03z" fill="#ffa442"/>
    <path d="M149.5 374h-70a7.5 7.5 0 0 1 0-15h70a7.5 7.5 0 0 1 0 15zM149.5 404h-80a7.5 7.5 0 0 1 0-15h80a7.5 7.5 0 0 1 0 15zM149.5 434h-80a7.5 7.5 0 0 1 0-15h80a7.5 7.5 0 0 1 0 15zM288.5 374h-70a7.5 7.5 0 0 1 0-15h70c4.143 0 7.5 3.358 7.5 7.5s-3.357 7.5-7.5 7.5zM288.5 404h-80a7.5 7.5 0 0 1 0-15h80c4.143 0 7.5 3.358 7.5 7.5s-3.357 7.5-7.5 7.5zM288.5 434h-80a7.5 7.5 0 0 1 0-15h80c4.143 0 7.5 3.358 7.5 7.5s-3.357 7.5-7.5 7.5zM427.5 374h-70c-4.143 0-7.5-3.358-7.5-7.5s3.357-7.5 7.5-7.5h70c4.143 0 7.5 3.358 7.5 7.5s-3.357 7.5-7.5 7.5zM427.5 404h-80c-4.143 0-7.5-3.358-7.5-7.5s3.357-7.5 7.5-7.5h80c4.143 0 7.5 3.358 7.5 7.5s-3.357 7.5-7.5 7.5zM427.5 434h-80c-4.143 0-7.5-3.358-7.5-7.5s3.357-7.5 7.5-7.5h80c4.143 0 7.5 3.358 7.5 7.5s-3.357 7.5-7.5 7.5z" fill="#f0e9e6"/>
</svg></svg>