<svg width="133" height="42" viewBox="0 0 133 42" fill="none" xmlns="http://www.w3.org/2000/svg">
<path d="M15.2188 8.11011L9.23047 25.2429H6.25391L0.265625 8.11011H3.14844L6.75781 18.8445C6.86719 19.157 6.98438 19.5359 7.10938 19.9812C7.24219 20.4265 7.36328 20.8757 7.47266 21.3289C7.58984 21.782 7.67969 22.1843 7.74219 22.5359C7.80469 22.1843 7.89062 21.782 8 21.3289C8.11719 20.8757 8.23828 20.4265 8.36328 19.9812C8.48828 19.5359 8.60547 19.1531 8.71484 18.8328L12.3359 8.11011H15.2188ZM19.9414 12.2703V25.2429H17.1875V12.2703H19.9414ZM18.582 7.30151C19.0039 7.30151 19.3672 7.41479 19.6719 7.64136C19.9844 7.86792 20.1406 8.25854 20.1406 8.81323C20.1406 9.36011 19.9844 9.75073 19.6719 9.98511C19.3672 10.2117 19.0039 10.325 18.582 10.325C18.1445 10.325 17.7734 10.2117 17.4688 9.98511C17.1719 9.75073 17.0234 9.36011 17.0234 8.81323C17.0234 8.25854 17.1719 7.86792 17.4688 7.64136C17.7734 7.41479 18.1445 7.30151 18.582 7.30151ZM30.6523 12.0242C32.1133 12.0242 33.25 12.4031 34.0625 13.1609C34.8828 13.9109 35.293 15.1179 35.293 16.782V25.2429H32.5391V17.2976C32.5391 16.2898 32.332 15.5359 31.918 15.0359C31.5039 14.5281 30.8633 14.2742 29.9961 14.2742C28.7383 14.2742 27.8633 14.6609 27.3711 15.4343C26.8867 16.2078 26.6445 17.3289 26.6445 18.7976V25.2429H23.8906V12.2703H26.0352L26.4219 14.0281H26.5742C26.8555 13.575 27.2031 13.2039 27.6172 12.9148C28.0391 12.6179 28.5078 12.3953 29.0234 12.2468C29.5469 12.0984 30.0898 12.0242 30.6523 12.0242ZM43.9766 23.2507C44.3359 23.2507 44.6914 23.2195 45.043 23.157C45.3945 23.0867 45.7148 23.0046 46.0039 22.9109V24.9968C45.6992 25.1296 45.3047 25.2429 44.8203 25.3367C44.3359 25.4304 43.832 25.4773 43.3086 25.4773C42.5742 25.4773 41.9141 25.3562 41.3281 25.114C40.7422 24.864 40.2773 24.4382 39.9336 23.8367C39.5898 23.2351 39.418 22.4031 39.418 21.3406V14.3679H37.6484V13.1375L39.5469 12.1648L40.4492 9.38745H42.1836V12.2703H45.8984V14.3679H42.1836V21.3054C42.1836 21.9617 42.3477 22.45 42.6758 22.7703C43.0039 23.0906 43.4375 23.2507 43.9766 23.2507ZM53.7266 12.0242C55.3672 12.0242 56.6055 12.3875 57.4414 13.114C58.2852 13.8406 58.707 14.9734 58.707 16.5125V25.2429H56.75L56.2227 23.4031H56.1289C55.7617 23.8718 55.3828 24.2585 54.9922 24.5632C54.6016 24.8679 54.1484 25.0945 53.6328 25.2429C53.125 25.3992 52.5039 25.4773 51.7695 25.4773C50.9961 25.4773 50.3047 25.3367 49.6953 25.0554C49.0859 24.7664 48.6055 24.3289 48.2539 23.7429C47.9023 23.157 47.7266 22.4148 47.7266 21.5164C47.7266 20.1804 48.2227 19.1765 49.2148 18.5046C50.2148 17.8328 51.7227 17.4617 53.7383 17.3914L55.9883 17.3093V16.6296C55.9883 15.7312 55.7773 15.0906 55.3555 14.7078C54.9414 14.325 54.3555 14.1335 53.5977 14.1335C52.9492 14.1335 52.3203 14.2273 51.7109 14.4148C51.1016 14.6023 50.5078 14.8328 49.9297 15.1062L49.0391 13.1609C49.6719 12.825 50.3906 12.5515 51.1953 12.3406C52.0078 12.1296 52.8516 12.0242 53.7266 12.0242ZM55.9766 19.0437L54.3008 19.1023C52.9258 19.1492 51.9609 19.3835 51.4062 19.8054C50.8516 20.2273 50.5742 20.8054 50.5742 21.5398C50.5742 22.1804 50.7656 22.6492 51.1484 22.946C51.5312 23.2351 52.0352 23.3796 52.6602 23.3796C53.6133 23.3796 54.4023 23.1101 55.0273 22.571C55.6602 22.0242 55.9766 21.2234 55.9766 20.1687V19.0437ZM66.2656 31.0085C64.5078 31.0085 63.1602 30.6921 62.2227 30.0593C61.2852 29.4265 60.8164 28.5398 60.8164 27.3992C60.8164 26.6023 61.0664 25.9265 61.5664 25.3718C62.0664 24.825 62.7812 24.446 63.7109 24.2351C63.3594 24.0789 63.0547 23.8367 62.7969 23.5085C62.5469 23.1726 62.4219 22.8015 62.4219 22.3953C62.4219 21.9109 62.5586 21.4968 62.832 21.1531C63.1055 20.8093 63.5156 20.4773 64.0625 20.157C63.3828 19.8679 62.8359 19.3992 62.4219 18.7507C62.0156 18.0945 61.8125 17.325 61.8125 16.4421C61.8125 15.5046 62.0117 14.7078 62.4102 14.0515C62.8086 13.3875 63.3906 12.8835 64.1562 12.5398C64.9219 12.1882 65.8477 12.0125 66.9336 12.0125C67.168 12.0125 67.4219 12.0281 67.6953 12.0593C67.9766 12.0828 68.2344 12.114 68.4688 12.1531C68.7109 12.1843 68.8945 12.2195 69.0195 12.2585H73.5078V13.7937L71.3047 14.2039C71.5156 14.5007 71.6836 14.8406 71.8086 15.2234C71.9336 15.5984 71.9961 16.0085 71.9961 16.4539C71.9961 17.7976 71.5312 18.8562 70.6016 19.6296C69.6797 20.3953 68.4062 20.7781 66.7812 20.7781C66.3906 20.7625 66.0117 20.7312 65.6445 20.6843C65.3633 20.8562 65.1484 21.0476 65 21.2585C64.8516 21.4617 64.7773 21.6921 64.7773 21.95C64.7773 22.1609 64.8516 22.3328 65 22.4656C65.1484 22.5906 65.3672 22.6843 65.6562 22.7468C65.9531 22.8093 66.3125 22.8406 66.7344 22.8406H68.9727C70.3945 22.8406 71.4805 23.1414 72.2305 23.7429C72.9805 24.3445 73.3555 25.2273 73.3555 26.3914C73.3555 27.8679 72.7461 29.0046 71.5273 29.8015C70.3086 30.6062 68.5547 31.0085 66.2656 31.0085ZM66.3711 29.075C67.332 29.075 68.1406 28.9812 68.7969 28.7937C69.4531 28.6062 69.9492 28.3367 70.2852 27.9851C70.6211 27.6414 70.7891 27.2312 70.7891 26.7546C70.7891 26.3328 70.6836 26.0085 70.4727 25.782C70.2617 25.5554 69.9453 25.3992 69.5234 25.3132C69.1016 25.2273 68.5781 25.1843 67.9531 25.1843H65.9141C65.4062 25.1843 64.957 25.2625 64.5664 25.4187C64.1758 25.5828 63.8711 25.8171 63.6523 26.1218C63.4414 26.4265 63.3359 26.7937 63.3359 27.2234C63.3359 27.8171 63.5977 28.2742 64.1211 28.5945C64.6523 28.9148 65.4023 29.075 66.3711 29.075ZM66.9102 18.9734C67.7148 18.9734 68.3125 18.7546 68.7031 18.3171C69.0938 17.8718 69.2891 17.2468 69.2891 16.4421C69.2891 15.5671 69.0859 14.9109 68.6797 14.4734C68.2812 14.0359 67.6875 13.8171 66.8984 13.8171C66.125 13.8171 65.5352 14.0398 65.1289 14.4851C64.7305 14.9304 64.5312 15.5906 64.5312 16.4656C64.5312 17.2546 64.7305 17.8718 65.1289 18.3171C65.5352 18.7546 66.1289 18.9734 66.9102 18.9734ZM81.043 12.0242C82.1992 12.0242 83.1914 12.2625 84.0195 12.739C84.8477 13.2156 85.4844 13.8914 85.9297 14.7664C86.375 15.6414 86.5977 16.6882 86.5977 17.907V19.3835H77.9375C77.9688 20.6414 78.3047 21.6101 78.9453 22.2898C79.5938 22.9695 80.5 23.3093 81.6641 23.3093C82.4922 23.3093 83.2344 23.2312 83.8906 23.075C84.5547 22.9109 85.2383 22.6726 85.9414 22.3601V24.5984C85.293 24.9031 84.6328 25.1257 83.9609 25.2664C83.2891 25.407 82.4844 25.4773 81.5469 25.4773C80.2734 25.4773 79.1523 25.2312 78.1836 24.739C77.2227 24.239 76.4688 23.4968 75.9219 22.5125C75.3828 21.5281 75.1133 20.3054 75.1133 18.8445C75.1133 17.3914 75.3594 16.157 75.8516 15.1414C76.3438 14.1257 77.0352 13.3523 77.9258 12.821C78.8164 12.2898 79.8555 12.0242 81.043 12.0242ZM81.043 14.0984C80.1758 14.0984 79.4727 14.3796 78.9336 14.9421C78.4023 15.5046 78.0898 16.3289 77.9961 17.4148H83.9023C83.8945 16.7664 83.7852 16.1921 83.5742 15.6921C83.3711 15.1921 83.0586 14.8015 82.6367 14.5203C82.2227 14.239 81.6914 14.0984 81.043 14.0984Z" fill="black"/>
<path d="M112.75 0C101.572 0 92.5 8.8098 92.5 19.6647C92.5 27.9502 97.792 35.0295 105.244 37.9136H86.776C86.398 37.9136 86.074 38.2283 86.074 38.5953C86.074 38.9624 86.398 39.277 86.776 39.277H110.752C111.4 39.3295 112.048 39.3819 112.75 39.3819C123.928 39.3295 133 30.5197 133 19.6647C133 8.8098 123.928 0 112.75 0ZM112.75 36.7075C103.084 36.7075 95.2 29.0514 95.2 19.6647C95.2 10.2781 103.084 2.62197 112.75 2.62197C122.416 2.62197 130.3 10.2781 130.3 19.6647C130.3 29.0514 122.416 36.7075 112.75 36.7075Z" fill="black"/>
<path d="M95.362 34.1381C95.362 33.771 95.038 33.4564 94.66 33.4564H81.052C80.674 33.4564 80.35 33.771 80.35 34.1381C80.35 34.5051 80.674 34.8198 81.052 34.8198H94.714C95.092 34.8198 95.362 34.5051 95.362 34.1381ZM91.312 29.7332C91.312 29.3661 90.988 29.0515 90.61 29.0515H79.702C79.324 29.1039 79 29.3661 79 29.7332C79 30.1003 79.324 30.4149 79.702 30.4149H90.664C90.988 30.4149 91.312 30.1003 91.312 29.7332ZM112.75 5.87329C104.92 5.87329 98.548 12.0611 98.548 19.6648C98.548 27.2685 104.92 33.4564 112.75 33.4564C120.58 33.4564 126.898 27.2685 126.898 19.6648C126.898 12.0611 120.58 5.87329 112.75 5.87329ZM118.906 15.5746C118.42 16.0465 118.258 16.7282 118.528 17.3575C118.798 17.9868 119.392 18.3538 120.094 18.3538H124.9V20.9758H120.094C119.392 20.9758 118.798 21.3953 118.528 21.9722C118.258 22.6014 118.42 23.2831 118.906 23.7551L122.308 27.0588L120.418 28.8941L117.016 25.5905C116.53 25.1185 115.828 24.9612 115.18 25.2234C114.532 25.4856 114.154 26.0624 114.154 26.7441V31.4112H111.454V26.7441C111.454 26.0624 111.022 25.4856 110.428 25.2234C109.78 24.9612 109.078 25.1185 108.592 25.5905L105.19 28.8941L103.3 27.0588L106.702 23.7551C107.188 23.2831 107.35 22.6014 107.08 21.9722C106.81 21.3429 106.216 20.9758 105.514 20.9758H100.6V18.3538H105.406C106.108 18.3538 106.702 17.9343 106.972 17.3575C107.242 16.7282 107.08 16.0465 106.594 15.5746L103.192 12.2709L105.082 10.4355L108.484 13.7392C108.97 14.2111 109.672 14.3685 110.32 14.1063C110.968 13.8441 111.346 13.2672 111.346 12.5855V7.91842H114.046V12.5855C114.046 13.2672 114.478 13.8441 115.072 14.1063C115.72 14.3685 116.422 14.2111 116.908 13.7392L120.31 10.4355L122.2 12.2709L118.906 15.5746ZM117.88 10.9599C117.124 10.5404 116.314 10.2258 115.45 9.96356V7.49891C116.962 7.81354 118.42 8.39038 119.716 9.22941L117.88 10.9599ZM110.05 9.96356C109.186 10.1733 108.376 10.5404 107.62 10.9599L105.784 9.17697C107.08 8.39038 108.484 7.76111 110.05 7.44647V9.96356ZM103.786 14.6831C103.354 15.4172 103.03 16.2038 102.76 17.0429H100.168C100.492 15.5746 101.086 14.1587 101.95 12.9002L103.786 14.6831ZM102.76 22.2868C102.976 23.1258 103.354 23.9124 103.786 24.6466L101.95 26.4295C101.14 25.171 100.492 23.8075 100.168 22.2868H102.76ZM107.62 28.3698C108.376 28.7893 109.186 29.1039 110.05 29.3661V31.8307C108.538 31.5161 107.08 30.9393 105.784 30.1003L107.62 28.3698ZM115.45 29.3661C116.314 29.1563 117.124 28.7893 117.88 28.3698L119.716 30.1527C118.42 30.9393 117.016 31.5686 115.45 31.8832V29.3661ZM121.714 24.6466C122.146 23.9124 122.47 23.1258 122.74 22.2868H125.332C125.008 23.7551 124.414 25.171 123.55 26.4295L121.714 24.6466ZM122.74 17.0429C122.524 16.2038 122.146 15.4172 121.714 14.6831L123.55 12.9002C124.36 14.1587 125.008 15.5221 125.332 17.0429H122.74Z" fill="black"/>
<path d="M112.75 15.7317C110.536 15.7317 108.7 17.5146 108.7 19.6646C108.7 21.8147 110.536 23.5976 112.75 23.5976C114.964 23.5976 116.8 21.8147 116.8 19.6646C116.8 17.5146 114.964 15.7317 112.75 15.7317ZM112.75 22.2866C111.238 22.2866 110.05 21.1329 110.05 19.6646C110.05 18.1963 111.238 17.0427 112.75 17.0427C114.262 17.0427 115.45 18.1963 115.45 19.6646C115.45 21.1329 114.262 22.2866 112.75 22.2866Z" fill="black"/>
<path d="M53.3799 32.2659L51.5146 39.4045H50.2354L49.0439 35.1272C49.0146 35.023 48.9821 34.8993 48.9463 34.7561C48.9105 34.6129 48.8747 34.4664 48.8389 34.3167C48.8063 34.1669 48.777 34.0302 48.751 33.9065C48.7282 33.7795 48.7119 33.6819 48.7021 33.6135C48.6956 33.6819 48.681 33.7779 48.6582 33.9016C48.6354 34.0253 48.6077 34.162 48.5752 34.3118C48.5459 34.4583 48.5133 34.6047 48.4775 34.7512C48.4417 34.8944 48.4092 35.0214 48.3799 35.1321L47.208 39.4045H45.9336L44.0732 32.2659H45.25L46.2803 36.4504C46.3128 36.5839 46.3454 36.7288 46.3779 36.885C46.4137 37.038 46.4463 37.1926 46.4756 37.3489C46.5081 37.5051 46.5374 37.6581 46.5635 37.8079C46.5895 37.9543 46.6107 38.0878 46.627 38.2083C46.6432 38.0846 46.6644 37.9478 46.6904 37.7981C46.7165 37.6451 46.7441 37.4905 46.7734 37.3342C46.806 37.1747 46.8385 37.0217 46.8711 36.8752C46.9069 36.7288 46.9427 36.5969 46.9785 36.4797L48.1406 32.2659H49.2832L50.4697 36.4944C50.5055 36.6148 50.5397 36.7499 50.5723 36.8997C50.6081 37.0494 50.6423 37.2024 50.6748 37.3586C50.7074 37.5149 50.7367 37.6663 50.7627 37.8127C50.7887 37.9592 50.8099 38.0911 50.8262 38.2083C50.849 38.0487 50.8783 37.8665 50.9141 37.6614C50.9499 37.4563 50.9906 37.248 51.0361 37.0364C51.0817 36.8248 51.1273 36.6295 51.1729 36.4504L52.1982 32.2659H53.3799ZM55.4209 31.8069V33.7161C55.4209 33.9146 55.4144 34.1083 55.4014 34.2971C55.3916 34.4859 55.3802 34.6324 55.3672 34.7366H55.4307C55.5446 34.5478 55.6846 34.3931 55.8506 34.2727C56.0166 34.149 56.2021 34.0562 56.4072 33.9944C56.6156 33.9325 56.8369 33.9016 57.0713 33.9016C57.4847 33.9016 57.8363 33.9716 58.126 34.1116C58.4157 34.2483 58.637 34.4615 58.79 34.7512C58.9463 35.0409 59.0244 35.4169 59.0244 35.8792V39.4045H57.877V36.094C57.877 35.6741 57.7907 35.3599 57.6182 35.1516C57.4456 34.94 57.1787 34.8342 56.8174 34.8342C56.4691 34.8342 56.1924 34.9075 55.9873 35.054C55.7855 35.1972 55.6406 35.4104 55.5527 35.6936C55.4648 35.9736 55.4209 36.3153 55.4209 36.719V39.4045H54.2734V31.8069H55.4209ZM62.7842 33.8967C63.266 33.8967 63.6794 33.996 64.0244 34.1946C64.3695 34.3931 64.6348 34.6747 64.8203 35.0393C65.0059 35.4039 65.0986 35.8401 65.0986 36.3479V36.9631H61.4902C61.5033 37.4872 61.6432 37.8909 61.9102 38.1741C62.1803 38.4573 62.5579 38.5989 63.043 38.5989C63.388 38.5989 63.6973 38.5663 63.9707 38.5012C64.2474 38.4329 64.5322 38.3336 64.8252 38.2034V39.136C64.555 39.2629 64.2799 39.3557 64 39.4143C63.7201 39.4729 63.3848 39.5022 62.9941 39.5022C62.4635 39.5022 61.9964 39.3997 61.5928 39.1946C61.1924 38.9862 60.8783 38.677 60.6504 38.2668C60.4258 37.8567 60.3135 37.3472 60.3135 36.7385C60.3135 36.1331 60.416 35.6187 60.6211 35.1956C60.8262 34.7724 61.1143 34.4501 61.4854 34.2288C61.8564 34.0074 62.2894 33.8967 62.7842 33.8967ZM62.7842 34.761C62.4229 34.761 62.1299 34.8782 61.9053 35.1125C61.6839 35.3469 61.5537 35.6903 61.5146 36.1428H63.9756C63.9723 35.8726 63.9268 35.6334 63.8389 35.425C63.7542 35.2167 63.624 35.054 63.4482 34.9368C63.2757 34.8196 63.0544 34.761 62.7842 34.761ZM68.5459 33.8967C69.0277 33.8967 69.4411 33.996 69.7861 34.1946C70.1312 34.3931 70.3965 34.6747 70.582 35.0393C70.7676 35.4039 70.8604 35.8401 70.8604 36.3479V36.9631H67.252C67.265 37.4872 67.4049 37.8909 67.6719 38.1741C67.9421 38.4573 68.3197 38.5989 68.8047 38.5989C69.1497 38.5989 69.459 38.5663 69.7324 38.5012C70.0091 38.4329 70.2939 38.3336 70.5869 38.2034V39.136C70.3167 39.2629 70.0417 39.3557 69.7617 39.4143C69.4818 39.4729 69.1465 39.5022 68.7559 39.5022C68.2253 39.5022 67.7581 39.3997 67.3545 39.1946C66.9541 38.9862 66.64 38.677 66.4121 38.2668C66.1875 37.8567 66.0752 37.3472 66.0752 36.7385C66.0752 36.1331 66.1777 35.6187 66.3828 35.1956C66.5879 34.7724 66.876 34.4501 67.2471 34.2288C67.6182 34.0074 68.0511 33.8967 68.5459 33.8967ZM68.5459 34.761C68.1846 34.761 67.8916 34.8782 67.667 35.1125C67.4456 35.3469 67.3154 35.6903 67.2764 36.1428H69.7373C69.734 35.8726 69.6885 35.6334 69.6006 35.425C69.516 35.2167 69.3857 35.054 69.21 34.9368C69.0374 34.8196 68.8161 34.761 68.5459 34.761ZM73.3066 39.4045H72.1543V31.8069H73.3066V39.4045ZM78.5801 37.8616C78.5801 38.2164 78.4938 38.5159 78.3213 38.76C78.1488 39.0042 77.8965 39.1897 77.5645 39.3167C77.2357 39.4403 76.832 39.5022 76.3535 39.5022C75.9759 39.5022 75.6504 39.4745 75.377 39.4192C75.1068 39.3671 74.8512 39.2857 74.6104 39.175V38.1838C74.8675 38.3043 75.1556 38.4084 75.4746 38.4963C75.7969 38.5842 76.1012 38.6282 76.3877 38.6282C76.7653 38.6282 77.0371 38.5696 77.2031 38.4524C77.3691 38.3319 77.4521 38.1724 77.4521 37.9739C77.4521 37.8567 77.418 37.7525 77.3496 37.6614C77.2845 37.567 77.1608 37.4709 76.9785 37.3733C76.7995 37.2724 76.5358 37.1519 76.1875 37.012C75.8457 36.8752 75.5576 36.7385 75.3232 36.6018C75.0889 36.4651 74.9115 36.3007 74.791 36.1086C74.6706 35.9133 74.6104 35.6643 74.6104 35.3616C74.6104 34.8831 74.7992 34.5201 75.1768 34.2727C75.5576 34.0221 76.0605 33.8967 76.6855 33.8967C77.0176 33.8967 77.3301 33.9309 77.623 33.9993C77.9193 34.0644 78.209 34.1604 78.4922 34.2874L78.1309 35.1516C77.8867 35.0442 77.641 34.9563 77.3936 34.8879C77.1494 34.8163 76.9004 34.7805 76.6465 34.7805C76.3503 34.7805 76.124 34.8261 75.9678 34.9172C75.8148 35.0084 75.7383 35.1386 75.7383 35.3079C75.7383 35.4348 75.7757 35.5422 75.8506 35.6301C75.9255 35.718 76.054 35.8059 76.2363 35.8938C76.4219 35.9817 76.679 36.0907 77.0078 36.2209C77.3301 36.3446 77.6084 36.4749 77.8428 36.6116C78.0804 36.745 78.2627 36.9094 78.3896 37.1047C78.5166 37.3 78.5801 37.5523 78.5801 37.8616Z" fill="black"/>
</svg>
